<?xml version="1.0" encoding="UTF-8"?>
<svg id="Layer_2" data-name="Layer 2" xmlns="http://www.w3.org/2000/svg" viewBox="0 0 870.31 250.22">
  <defs>
    <style>
      .cls-1 {
        fill: #285c4d;
      }
    </style>
  </defs>
  <g id="Layer_1-2" data-name="Layer 1">
    <g>
      <g>
        <path class="cls-1" d="m75.96,192.66v39.15c0,2.75,2.25,5,5,5h12.34c2.75,0,5-2.25,5-5v-3.4c0-2.75-2.25-5-5-5h-1.17c-2.75,0-5-2.25-5-5v-3.41c0-2.75,2.25-5,5-5h14.58c2.75,0,5,2.25,5,5v30.22c0,2.75-2.25,5-5,5h-39.15c-2.75,0-5-2.25-5-5v-52.56c0-2.75-2.25-5-5-5H5c-2.75,0-5-2.25-5-5v-39.15c0-2.75,2.25-5,5-5h30.22c2.75,0,5,2.25,5,5v14.58c0,2.75-2.25,5-5,5h-3.41c-2.75,0-5-2.25-5-5v-1.17c0-2.75-2.25-5-5-5h-3.4c-2.75,0-5,2.25-5,5v12.34c0,2.75,2.25,5,5,5h39.15c2.75,0,5-2.25,5-5v-25.75c0-2.75,2.25-5,5-5h12.34c2.75,0,5,2.25,5,5v3.41c0,2.75-2.01,5-4.47,5s-4.47,2.25-4.47,5v12.34c0,2.75,2.25,5,5,5h12.34c2.75,0,5-1.01,5-2.24s2.25-2.23,5-2.23h3.41c2.75,0,5,2.25,5,5v7.87c0,2.75-2.25,5-5,5h-25.75c-2.75,0-5,2.25-5,5Z"/>
        <path class="cls-1" d="m75.96,192.66v39.15c0,2.75,2.25,5,5,5h12.34c2.75,0,5-2.25,5-5v-3.4c0-2.75-2.25-5-5-5h-1.17c-2.75,0-5-2.25-5-5v-3.41c0-2.75,2.25-5,5-5h14.58c2.75,0,5,2.25,5,5v30.22c0,2.75-2.25,5-5,5h-39.15c-2.75,0-5-2.25-5-5v-52.56c0-2.75-2.25-5-5-5H5c-2.75,0-5-2.25-5-5v-39.15c0-2.75,2.25-5,5-5h30.22c2.75,0,5,2.25,5,5v14.58c0,2.75-2.25,5-5,5h-3.41c-2.75,0-5-2.25-5-5v-1.17c0-2.75-2.25-5-5-5h-3.4c-2.75,0-5,2.25-5,5v12.34c0,2.75,2.25,5,5,5h39.15c2.75,0,5-2.25,5-5v-25.75c0-2.75,2.25-5,5-5h12.34c2.75,0,5,2.25,5,5v3.41c0,2.75-2.01,5-4.47,5s-4.47,2.25-4.47,5v12.34c0,2.75,2.25,5,5,5h12.34c2.75,0,5-1.01,5-2.24s2.25-2.23,5-2.23h3.41c2.75,0,5,2.25,5,5v7.87c0,2.75-2.25,5-5,5h-25.75c-2.75,0-5,2.25-5,5Z"/>
        <path class="cls-1" d="m111.71,5v30.21c0,2.75-2.25,5-5,5h-12.34c-2.75,0-5-2.25-5-5v-3.4c0-2.75,2.01-5,4.46-5s4.47-2.25,4.47-5v-3.4c0-2.75-2.25-5-5-5h-12.34c-2.75,0-5,2.25-5,5v39.14c0,2.75,2.01,5,4.47,5s4.47,2.25,4.47,5v3.41c0,2.75-2.01,5-4.47,5s-4.47,2.25-4.47,5v12.34c0,2.75,2.01,5,4.47,5s4.47,2.25,4.47,5v3.4c0,2.75-2.25,5-5,5h-12.34c-2.75,0-5-2.25-5-5v-25.74c0-2.75-2.25-5-5-5H18.41c-2.75,0-5,2.25-5,5v12.34c0,2.75,2.25,5,5,5h3.4c2.75,0,5-2.25,5-5v-1.17c0-2.75,2.25-5,5-5h3.41c2.75,0,5,2.25,5,5v14.57c0,2.75-2.25,5-5,5H5c-2.75,0-5-2.25-5-5v-39.15c0-2.75,2.25-5,5-5h52.56c2.75,0,5-2.25,5-5V5c0-2.75,2.25-5,5-5h39.15c2.75,0,5,2.25,5,5Z"/>
        <path class="cls-1" d="m111.71,5v30.21c0,2.75-2.25,5-5,5h-12.34c-2.75,0-5-2.25-5-5v-3.4c0-2.75,2.01-5,4.46-5s4.47-2.25,4.47-5v-3.4c0-2.75-2.25-5-5-5h-12.34c-2.75,0-5,2.25-5,5v39.14c0,2.75,2.01,5,4.47,5s4.47,2.25,4.47,5v3.41c0,2.75-2.01,5-4.47,5s-4.47,2.25-4.47,5v12.34c0,2.75,2.01,5,4.47,5s4.47,2.25,4.47,5v3.4c0,2.75-2.25,5-5,5h-12.34c-2.75,0-5-2.25-5-5v-25.74c0-2.75-2.25-5-5-5H18.41c-2.75,0-5,2.25-5,5v12.34c0,2.75,2.25,5,5,5h3.4c2.75,0,5-2.25,5-5v-1.17c0-2.75,2.25-5,5-5h3.41c2.75,0,5,2.25,5,5v14.57c0,2.75-2.25,5-5,5H5c-2.75,0-5-2.25-5-5v-39.15c0-2.75,2.25-5,5-5h52.56c2.75,0,5-2.25,5-5V5c0-2.75,2.25-5,5-5h39.15c2.75,0,5,2.25,5,5Z"/>
        <path class="cls-1" d="m250.22,67.55v39.15c0,2.75-2.25,5-5,5h-30.22c-2.75,0-5-2.25-5-5v-14.57c0-2.75,2.25-5,5-5h3.41c2.75,0,5,2.25,5,5v1.17c0,2.75,2.25,5,5,5h3.4c2.75,0,5-2.25,5-5v-12.34c0-2.75-2.25-5-5-5h-39.15c-2.75,0-5,2.25-5,5v25.74c0,2.75-2.25,5-5,5h-12.34c-2.75,0-5-2.25-5-5v-3.4c0-2.75,2.01-5,4.47-5s4.47-2.25,4.47-5v-12.34c0-2.75-2.25-5-5-5h-12.34c-2.75,0-5,2.01-5,4.47s-2.25,4.47-5,4.47h-3.41c-2.75,0-5-2.25-5-5v-12.35c0-2.75,2.25-5,5-5h25.75c2.75,0,5-2.25,5-5V18.41c0-2.75-2.25-5-5-5h-12.34c-2.75,0-5,2.25-5,5v3.4c0,2.75,2.25,5,5,5h1.17c2.75,0,5,2.25,5,5v3.4c0,2.75-2.25,5-5,5h-14.58c-2.75,0-5-2.25-5-5V5c0-2.75,2.25-5,5-5h39.15c2.75,0,5,2.25,5,5v52.55c0,2.75,2.25,5,5,5h52.56c2.75,0,5,2.25,5,5Z"/>
        <path class="cls-1" d="m250.22,67.55v39.15c0,2.75-2.25,5-5,5h-30.22c-2.75,0-5-2.25-5-5v-14.57c0-2.75,2.25-5,5-5h3.41c2.75,0,5,2.25,5,5v1.17c0,2.75,2.25,5,5,5h3.4c2.75,0,5-2.25,5-5v-12.34c0-2.75-2.25-5-5-5h-39.15c-2.75,0-5,2.25-5,5v25.74c0,2.75-2.25,5-5,5h-12.34c-2.75,0-5-2.25-5-5v-3.4c0-2.75,2.01-5,4.47-5s4.47-2.25,4.47-5v-12.34c0-2.75-2.25-5-5-5h-12.34c-2.75,0-5,2.01-5,4.47s-2.25,4.47-5,4.47h-3.41c-2.75,0-5-2.25-5-5v-12.35c0-2.75,2.25-5,5-5h25.75c2.75,0,5-2.25,5-5V18.41c0-2.75-2.25-5-5-5h-12.34c-2.75,0-5,2.25-5,5v3.4c0,2.75,2.25,5,5,5h1.17c2.75,0,5,2.25,5,5v3.4c0,2.75-2.25,5-5,5h-14.58c-2.75,0-5-2.25-5-5V5c0-2.75,2.25-5,5-5h39.15c2.75,0,5,2.25,5,5v52.55c0,2.75,2.25,5,5,5h52.56c2.75,0,5,2.25,5,5Z"/>
        <path class="cls-1" d="m146.93,98.29h-30.22c-2.75,0-5-2.25-5-5v-34.68c0-2.75-2.25-5-5-5h-3.42c-2.75,0-5,2.25-5,5v92.78c0,2.75,2.25,5,5,5h43.64c2.75,0,5-2.25,5-5v-48.1c0-2.75-2.25-5-5-5Zm-8.42,39.68c0,2.75-2.25,5-5,5h-16.8c-2.75,0-5-2.25-5-5v-21.26c0-2.75,2.25-5,5-5h16.8c2.75,0,5,2.25,5,5v21.26Z"/>
        <path class="cls-1" d="m146.93,98.29h-30.22c-2.75,0-5-2.25-5-5v-34.68c0-2.75-2.25-5-5-5h-3.42c-2.75,0-5,2.25-5,5v92.78c0,2.75,2.25,5,5,5h43.64c2.75,0,5-2.25,5-5v-48.1c0-2.75-2.25-5-5-5Zm-8.42,39.68c0,2.75-2.25,5-5,5h-16.8c-2.75,0-5-2.25-5-5v-21.26c0-2.75,2.25-5,5-5h16.8c2.75,0,5,2.25,5,5v21.26Z"/>
        <path class="cls-1" d="m250.22,143.51v39.15c0,2.75-2.25,5-5,5h-52.56c-2.75,0-5,2.25-5,5v52.56c0,2.75-2.25,5-5,5h-39.15c-2.75,0-5-2.25-5-5v-30.22c0-2.75,2.25-5,5-5h14.58c2.75,0,5,2.25,5,5v3.41c0,2.75-2.25,5-5,5h-1.17c-2.75,0-5,2.25-5,5v3.4c0,2.75,2.25,5,5,5h12.34c2.75,0,5-2.25,5-5v-39.15c0-2.75-2.25-5-5-5h-25.75c-2.75,0-5-2.25-5-5v-7.87c0-2.75,2.25-5,5-5h3.41c2.75,0,5,1,5,2.23s2.25,2.24,5,2.24h12.34c2.75,0,5-2.25,5-5v-12.34c0-2.75-2.01-5-4.47-5s-4.47-2.25-4.47-5v-3.41c0-2.75,2.25-5,5-5h12.34c2.75,0,5,2.25,5,5v25.75c0,2.75,2.25,5,5,5h39.15c2.75,0,5-2.25,5-5v-12.34c0-2.75-2.25-5-5-5h-3.4c-2.75,0-5,2.25-5,5v1.17c0,2.75-2.25,5-5,5h-3.41c-2.75,0-5-2.25-5-5v-14.58c0-2.75,2.25-5,5-5h30.22c2.75,0,5,2.25,5,5Z"/>
        <path class="cls-1" d="m250.22,143.51v39.15c0,2.75-2.25,5-5,5h-52.56c-2.75,0-5,2.25-5,5v52.56c0,2.75-2.25,5-5,5h-39.15c-2.75,0-5-2.25-5-5v-30.22c0-2.75,2.25-5,5-5h14.58c2.75,0,5,2.25,5,5v3.41c0,2.75-2.25,5-5,5h-1.17c-2.75,0-5,2.25-5,5v3.4c0,2.75,2.25,5,5,5h12.34c2.75,0,5-2.25,5-5v-39.15c0-2.75-2.25-5-5-5h-25.75c-2.75,0-5-2.25-5-5v-7.87c0-2.75,2.25-5,5-5h3.41c2.75,0,5,1,5,2.23s2.25,2.24,5,2.24h12.34c2.75,0,5-2.25,5-5v-12.34c0-2.75-2.01-5-4.47-5s-4.47-2.25-4.47-5v-3.41c0-2.75,2.25-5,5-5h12.34c2.75,0,5,2.25,5,5v25.75c0,2.75,2.25,5,5,5h39.15c2.75,0,5-2.25,5-5v-12.34c0-2.75-2.25-5-5-5h-3.4c-2.75,0-5,2.25-5,5v1.17c0,2.75-2.25,5-5,5h-3.41c-2.75,0-5-2.25-5-5v-14.58c0-2.75,2.25-5,5-5h30.22c2.75,0,5,2.25,5,5Z"/>
      </g>
      <g>
        <path class="cls-1" d="m328.62,91.34c-1,0-2.12-.13-2.48-.29s-.66-1.84-.66-2.84v-44.87c0-1-.82-1.83-1.83-1.83h-15.24c-1,0-1.83.82-1.83,1.83v136.75c0,1,.82,1.83,1.83,1.83h79.75c1,0,1.83-.82,1.83-1.83v-86.92c0-1-.82-1.83-1.83-1.83h-59.55Zm42.5,68.55c0,1-.13,2.12-.29,2.48s-1.84.66-2.84.66h-39.36c-1,0-2.12-.13-2.48-.29s-.66-1.84-.66-2.85v-46.52c0-1,.13-2.12.29-2.48s1.84-.66,2.85-.66h39.36c1,0,2.12.13,2.48.29s.66,1.84.66,2.85v46.52Z"/>
        <path class="cls-1" d="m328.62,91.34c-1,0-2.12-.13-2.48-.29s-.66-1.84-.66-2.84v-44.87c0-1-.82-1.83-1.83-1.83h-15.24c-1,0-1.83.82-1.83,1.83v136.75c0,1,.82,1.83,1.83,1.83h79.75c1,0,1.83-.82,1.83-1.83v-86.92c0-1-.82-1.83-1.83-1.83h-59.55Zm42.5,68.55c0,1-.13,2.12-.29,2.48s-1.84.66-2.84.66h-39.36c-1,0-2.12-.13-2.48-.29s-.66-1.84-.66-2.85v-46.52c0-1,.13-2.12.29-2.48s1.84-.66,2.85-.66h39.36c1,0,2.12.13,2.48.29s.66,1.84.66,2.85v46.52Z"/>
        <path class="cls-1" d="m538.43,162.09l.17.55c.6.21,1.91.38,2.92.38h47.37c1,0,1.83.82,1.83,1.83v15.24c0,1-.82,1.83-1.83,1.83h-79.75c-1,0-1.83-.82-1.83-1.83v-19.48c0-1,.69-2.28,1.53-2.83l67.32-44.14c.84-.55,1.84-1.41,2.22-1.92l-.16-.55-.17-.55c-.6-.21-1.91-.38-2.92-.38h-66c-1,0-1.83-.82-1.83-1.83v-15.24c0-1,.82-1.83,1.83-1.83h79.75c1,0,1.83.82,1.83,1.83v31.69c0,1-.69,2.28-1.53,2.83l-48.69,31.94c-.84.55-1.85,1.42-2.24,1.92l.17.55Z"/>
        <path class="cls-1" d="m538.43,162.09l.17.55c.6.21,1.91.38,2.92.38h47.37c1,0,1.83.82,1.83,1.83v15.24c0,1-.82,1.83-1.83,1.83h-79.75c-1,0-1.83-.82-1.83-1.83v-19.48c0-1,.69-2.28,1.53-2.83l67.32-44.14c.84-.55,1.84-1.41,2.22-1.92l-.16-.55-.17-.55c-.6-.21-1.91-.38-2.92-.38h-66c-1,0-1.83-.82-1.83-1.83v-15.24c0-1,.82-1.83,1.83-1.83h79.75c1,0,1.83.82,1.83,1.83v31.69c0,1-.69,2.28-1.53,2.83l-48.69,31.94c-.84.55-1.85,1.42-2.24,1.92l.17.55Z"/>
        <path class="cls-1" d="m868.48,91.34c1,0,1.83.82,1.83,1.83v15.24c0,1-.82,1.83-1.83,1.83h-38.05c-1,0-2.12.13-2.48.29s-.66,1.84-.66,2.85v66.72c0,1-.82,1.83-1.83,1.83h-15.22c-1,0-1.83-.82-1.83-1.83v-86.92c0-1,.82-1.83,1.83-1.83h1.66c1,0,2.41.58,3.12,1.29l11.36,11.36c.71.71,1.56,1.47,1.88,1.69h.68c.32-.22,1.17-.97,1.88-1.69l11.36-11.36c.71-.71,2.11-1.29,3.12-1.29h23.17Z"/>
        <path class="cls-1" d="m868.48,91.34c1,0,1.83.82,1.83,1.83v15.24c0,1-.82,1.83-1.83,1.83h-38.05c-1,0-2.12.13-2.48.29s-.66,1.84-.66,2.85v66.72c0,1-.82,1.83-1.83,1.83h-15.22c-1,0-1.83-.82-1.83-1.83v-86.92c0-1,.82-1.83,1.83-1.83h1.66c1,0,2.41.58,3.12,1.29l11.36,11.36c.71.71,1.56,1.47,1.88,1.69h.68c.32-.22,1.17-.97,1.88-1.69l11.36-11.36c.71-.71,2.11-1.29,3.12-1.29h23.17Z"/>
        <path class="cls-1" d="m408.78,91.34c-1,0-1.83.82-1.83,1.83v86.92c0,1,.82,1.83,1.83,1.83h44.67c1,0,2.41-.58,3.12-1.29l11.36-11.36c.71-.71,1.56-1.47,1.88-1.69h.34c.17,0,.34.04.5.1l.5.2c.17.56.31,1.83.31,2.84v9.38c0,1,.82,1.83,1.83,1.83h15.24c1,0,1.83-.82,1.83-1.83v-86.92c0-1-.82-1.83-1.83-1.83h-79.75Zm62.69,68.55c0,1-.13,2.12-.29,2.48s-1.84.66-2.84.66h-39.36c-1,0-2.12-.13-2.48-.29s-.66-1.84-.66-2.85v-46.52c0-1,.13-2.12.29-2.48s1.84-.66,2.84-.66h39.36c1,0,2.12.13,2.48.29s.66,1.84.66,2.85v46.52Z"/>
        <path class="cls-1" d="m408.78,91.34c-1,0-1.83.82-1.83,1.83v86.92c0,1,.82,1.83,1.83,1.83h44.67c1,0,2.41-.58,3.12-1.29l11.36-11.36c.71-.71,1.56-1.47,1.88-1.69h.34c.17,0,.34.04.5.1l.5.2c.17.56.31,1.83.31,2.84v9.38c0,1,.82,1.83,1.83,1.83h15.24c1,0,1.83-.82,1.83-1.83v-86.92c0-1-.82-1.83-1.83-1.83h-79.75Zm62.69,68.55c0,1-.13,2.12-.29,2.48s-1.84.66-2.84.66h-39.36c-1,0-2.12-.13-2.48-.29s-.66-1.84-.66-2.85v-46.52c0-1,.13-2.12.29-2.48s1.84-.66,2.84-.66h39.36c1,0,2.12.13,2.48.29s.66,1.84.66,2.85v46.52Z"/>
        <path class="cls-1" d="m609.51,91.34c-1,0-1.83.82-1.83,1.83v86.92c0,1,.82,1.83,1.83,1.83h44.68c1,0,2.41-.58,3.12-1.29l11.36-11.36c.71-.71,1.56-1.47,1.88-1.69h.34c.16,0,.33.04.5.1l.49.2c.18.56.33,1.83.33,2.84v9.38c0,1,.82,1.83,1.83,1.83h15.22c1,0,1.83-.82,1.83-1.83v-86.92c0-1-.82-1.83-1.83-1.83h-79.75Zm62.7,68.55c0,1-.13,2.12-.29,2.48s-1.84.66-2.84.66h-39.36c-1,0-2.12-.13-2.48-.29s-.66-1.84-.66-2.85v-46.52c0-1,.13-2.12.29-2.48s1.84-.66,2.85-.66h39.36c1,0,2.12.13,2.48.29s.66,1.84.66,2.85v46.52Z"/>
        <path class="cls-1" d="m609.51,91.34c-1,0-1.83.82-1.83,1.83v86.92c0,1,.82,1.83,1.83,1.83h44.68c1,0,2.41-.58,3.12-1.29l11.36-11.36c.71-.71,1.56-1.47,1.88-1.69h.34c.16,0,.33.04.5.1l.49.2c.18.56.33,1.83.33,2.84v9.38c0,1,.82,1.83,1.83,1.83h15.22c1,0,1.83-.82,1.83-1.83v-86.92c0-1-.82-1.83-1.83-1.83h-79.75Zm62.7,68.55c0,1-.13,2.12-.29,2.48s-1.84.66-2.84.66h-39.36c-1,0-2.12-.13-2.48-.29s-.66-1.84-.66-2.85v-46.52c0-1,.13-2.12.29-2.48s1.84-.66,2.85-.66h39.36c1,0,2.12.13,2.48.29s.66,1.84.66,2.85v46.52Z"/>
        <path class="cls-1" d="m709.88,91.34c-1,0-1.83.82-1.83,1.83v86.92c0,1,.82,1.83,1.83,1.83h44.67c1,0,2.41-.58,3.12-1.29l11.38-11.37c.71-.71,1.55-1.47,1.87-1.68h.34c.17,0,.34.04.51.1l.49.2c.17.56.31,1.83.31,2.84v9.38c0,1,.82,1.83,1.83,1.83h15.24c1,0,1.83-.82,1.83-1.83v-86.92c0-1-.82-1.83-1.83-1.83h-79.75Zm62.69,68.55c0,1-.13,2.12-.29,2.48s-1.84.66-2.85.66h-39.36c-1,0-2.12-.13-2.48-.29s-.66-1.84-.66-2.85v-46.52c0-1,.13-2.12.29-2.48s1.84-.66,2.84-.66h39.36c1,0,2.12.13,2.48.29s.66,1.84.66,2.85v46.52Z"/>
        <path class="cls-1" d="m709.88,91.34c-1,0-1.83.82-1.83,1.83v86.92c0,1,.82,1.83,1.83,1.83h44.67c1,0,2.41-.58,3.12-1.29l11.38-11.37c.71-.71,1.55-1.47,1.87-1.68h.34c.17,0,.34.04.51.1l.49.2c.17.56.31,1.83.31,2.84v9.38c0,1,.82,1.83,1.83,1.83h15.24c1,0,1.83-.82,1.83-1.83v-86.92c0-1-.82-1.83-1.83-1.83h-79.75Zm62.69,68.55c0,1-.13,2.12-.29,2.48s-1.84.66-2.85.66h-39.36c-1,0-2.12-.13-2.48-.29s-.66-1.84-.66-2.85v-46.52c0-1,.13-2.12.29-2.48s1.84-.66,2.84-.66h39.36c1,0,2.12.13,2.48.29s.66,1.84.66,2.85v46.52Z"/>
      </g>
    </g>
  </g>
</svg>